<svg width="512" height="512" viewBox="0 0 512 512" fill="none" xmlns="http://www.w3.org/2000/svg">
  <defs>
    <linearGradient id="bg" x1="84" y1="40" x2="420" y2="472" gradientUnits="userSpaceOnUse">
      <stop stop-color="#23324D"/>
      <stop offset="0.45" stop-color="#355B87"/>
      <stop offset="1" stop-color="#7BAFE0"/>
    </linearGradient>
    <linearGradient id="cardGlow" x1="144" y1="124" x2="368" y2="388" gradientUnits="userSpaceOnUse">
      <stop stop-color="#FFFFFF" stop-opacity="0.22"/>
      <stop offset="1" stop-color="#FFFFFF" stop-opacity="0"/>
    </linearGradient>
    <linearGradient id="skin" x1="196" y1="156" x2="316" y2="324" gradientUnits="userSpaceOnUse">
      <stop stop-color="#FFF2E4"/>
      <stop offset="1" stop-color="#E8D1BE"/>
    </linearGradient>
    <linearGradient id="hair" x1="188" y1="132" x2="324" y2="236" gradientUnits="userSpaceOnUse">
      <stop stop-color="#2A1D18"/>
      <stop offset="1" stop-color="#5A4035"/>
    </linearGradient>
    <linearGradient id="shirt" x1="176" y1="300" x2="336" y2="432" gradientUnits="userSpaceOnUse">
      <stop stop-color="#F7FBFF"/>
      <stop offset="1" stop-color="#D7E5F5"/>
    </linearGradient>
  </defs>

  <rect width="512" height="512" rx="96" fill="url(#bg)"/>
  <circle cx="256" cy="188" r="150" fill="url(#cardGlow)"/>
  <circle cx="148" cy="122" r="14" fill="#FFFFFF" opacity="0.14"/>
  <circle cx="400" cy="132" r="22" fill="#FFFFFF" opacity="0.12"/>
  <circle cx="416" cy="398" r="18" fill="#FFFFFF" opacity="0.10"/>
  <circle cx="120" cy="382" r="16" fill="#FFFFFF" opacity="0.08"/>

  <ellipse cx="256" cy="170" rx="104" ry="108" fill="url(#skin)"/>
  <path d="M154 188C154 136 197 94 256 94C315 94 358 136 358 188V206C343 187 323 173 298 166C287 138 274 126 256 126C238 126 225 137 214 164C188 171 168 184 154 206V188Z" fill="url(#hair)"/>
  <path d="M184 184C188 160 199 142 216 130C219 156 227 175 242 188C227 190 209 190 184 184Z" fill="#3A2721" opacity="0.55"/>
  <circle cx="220" cy="184" r="7" fill="#1F2D4A"/>
  <circle cx="292" cy="184" r="7" fill="#1F2D4A"/>
  <path d="M224 232C236 242 248 247 256 247C264 247 276 242 288 232" stroke="#7B4E36" stroke-width="8" stroke-linecap="round"/>
  <path d="M208 258C222 270 238 277 256 277C274 277 290 270 304 258" stroke="#C6845C" stroke-width="10" stroke-linecap="round" opacity="0.9"/>

  <path d="M170 404C178 344 214 308 256 308C298 308 334 344 342 404" fill="url(#shirt)"/>
  <path d="M194 308C207 323 229 334 256 334C283 334 305 323 318 308C322 338 317 368 305 404H207C195 368 190 338 194 308Z" fill="#E8F1FB" opacity="0.5"/>
  <path d="M204 340C214 324 232 316 256 316C280 316 298 324 308 340" fill="#C8D9EB" opacity="0.65"/>

  <circle cx="380" cy="350" r="28" fill="#FFFFFF" opacity="0.14"/>
  <circle cx="380" cy="350" r="18" fill="#FFFFFF" opacity="0.82"/>
  <circle cx="380" cy="350" r="7" fill="#355B87"/>
</svg>